<svg id="Camada_1" data-name="Camada 1" xmlns="http://www.w3.org/2000/svg" viewBox="0 0 57.5392 36.1218"><defs><style>.cls-1{fill:#020100;}.cls-2{fill:#fff;}.cls-3{fill:#f9af17;}</style></defs><g id="illustration"><path class="cls-1" d="M2.7606,43.023l-.7115.4107a.3164.3164,0,0,1-.2846-.0117l-.6706-.3872c-.0842-.0487-.0933-.1222-.02-.1644L1.785,42.46a.316.316,0,0,1,.2845.0118l.6707.3872C2.8244,42.9073,2.8336,42.9808,2.7606,43.023Z" transform="translate(-0.9355 -11.2706)"/><path class="cls-1" d="M2.6718,44.9859l-.7114.4108a.3171.3171,0,0,1-.2846-.0118l-.6706-.3872c-.0842-.0486-.0934-.1222-.02-.1643l.7115-.4108a.316.316,0,0,1,.2845.0118l.6707.3872C2.7357,44.87,2.7448,44.9438,2.6718,44.9859Z" transform="translate(-0.9355 -11.2706)"/><path class="cls-1" d="M4.4161,43.9788l-.7114.4107a.3161.3161,0,0,1-.2846-.0117L2.75,43.9906c-.0842-.0486-.0934-.1222-.02-.1643l.7115-.4108a.3163.3163,0,0,1,.2845.0118l.6706.3872C4.48,43.8632,4.4891,43.9367,4.4161,43.9788Z" transform="translate(-0.9355 -11.2706)"/><path class="cls-1" d="M4.4238,45.9973l-.7114.4108a.3158.3158,0,0,1-.2846-.0118l-.6706-.3872c-.0842-.0485-.0934-.1221-.0205-.1642l.7116-.4108a.3163.3163,0,0,1,.2845.0118l.6707.3872C4.4877,45.8817,4.4968,45.9553,4.4238,45.9973Z" transform="translate(-0.9355 -11.2706)"/><path class="cls-1" d="M6.1681,44.99l-.7114.4108a.3165.3165,0,0,1-.2846-.0118l-.6706-.3872c-.0842-.0486-.0934-.1222-.0205-.1643l.7115-.4107a.3158.3158,0,0,1,.2846.0118l.6706.3872C6.232,44.8746,6.2411,44.9482,6.1681,44.99Z" transform="translate(-0.9355 -11.2706)"/><path class="cls-1" d="M6.0794,46.9532l-.7115.4108a.3163.3163,0,0,1-.2845-.0118l-.6706-.3872c-.0842-.0486-.0934-.1222-.0205-.1642l.7115-.4109a.316.316,0,0,1,.2845.0119l.6707.3871C6.1432,46.8375,6.1524,46.9111,6.0794,46.9532Z" transform="translate(-0.9355 -11.2706)"/><path class="cls-1" d="M7.8681,44.0044l-.7115.4108a.3162.3162,0,0,1-.2846-.0118l-.6706-.3872c-.0842-.0486-.0933-.1222-.02-.1643l.7116-.4108a.3166.3166,0,0,1,.2845.0118l.6707.3872C7.9319,43.8887,7.941,43.9623,7.8681,44.0044Z" transform="translate(-0.9355 -11.2706)"/><path class="cls-1" d="M7.7793,45.9674l-.7114.4107a.3165.3165,0,0,1-.2846-.0118l-.6706-.3872c-.0842-.0486-.0934-.1221-.02-.1643l.7115-.4107a.3162.3162,0,0,1,.2845.0117l.6706.3872C7.8431,45.8517,7.8523,45.9252,7.7793,45.9674Z" transform="translate(-0.9355 -11.2706)"/><path class="cls-1" d="M9.568,44.9391l-.7115.4108a.3162.3162,0,0,1-.2846-.0119l-.6706-.3871c-.0842-.0486-.0933-.1222-.02-.1643l.7115-.4108a.3163.3163,0,0,1,.2845.0118l.6707.3872C9.6318,44.8234,9.641,44.897,9.568,44.9391Z" transform="translate(-0.9355 -11.2706)"/><path class="cls-1" d="M11.3123,43.932l-.7115.4108a.3165.3165,0,0,1-.2846-.0118l-.6706-.3872c-.0842-.0486-.0933-.1222-.02-.1643l.7115-.4107a.3156.3156,0,0,1,.2845.0118l.6707.3872C11.3761,43.8163,11.3852,43.89,11.3123,43.932Z" transform="translate(-0.9355 -11.2706)"/><path class="cls-1" d="M13.0566,42.925l-.7115.4107a.3161.3161,0,0,1-.2846-.0117l-.6706-.3872c-.0842-.0487-.0933-.1222-.0205-.1643l.7116-.4108a.3166.3166,0,0,1,.2845.0117l.6707.3872C13.12,42.8093,13.13,42.8828,13.0566,42.925Z" transform="translate(-0.9355 -11.2706)"/><path class="cls-1" d="M14.8008,41.9179l-.7114.4108a.3165.3165,0,0,1-.2846-.0118l-.6706-.3872c-.0842-.0486-.0934-.1222-.0205-.1643l.7116-.4108a.3163.3163,0,0,1,.2845.0118l.6707.3872C14.8647,41.8022,14.8738,41.8758,14.8008,41.9179Z" transform="translate(-0.9355 -11.2706)"/><path class="cls-1" d="M16.5451,40.9108l-.7114.4108a.3165.3165,0,0,1-.2846-.0118l-.6706-.3872c-.0842-.0486-.0934-.1222-.0205-.1643l.7115-.4107a.3158.3158,0,0,1,.2846.0118l.6706.3872C16.609,40.7952,16.6181,40.8687,16.5451,40.9108Z" transform="translate(-0.9355 -11.2706)"/><path class="cls-1" d="M9.4793,46.902l-.7115.4107a.3161.3161,0,0,1-.2846-.0117l-.6706-.3872c-.0842-.0486-.0934-.1221-.02-.1643l.7115-.4108a.3165.3165,0,0,1,.2846.0118l.6706.3872C9.5431,46.7864,9.5522,46.86,9.4793,46.902Z" transform="translate(-0.9355 -11.2706)"/><path class="cls-1" d="M11.2235,45.8949l-.7114.4108a.3165.3165,0,0,1-.2846-.0118l-.6706-.3872c-.0842-.0486-.0934-.1222-.02-.1642l.7115-.4108a.3163.3163,0,0,1,.2845.0118l.6706.3872C11.2874,45.7792,11.2965,45.8528,11.2235,45.8949Z" transform="translate(-0.9355 -11.2706)"/><path class="cls-1" d="M12.9678,44.8879l-.7114.4108a.3168.3168,0,0,1-.2846-.0118L11.3012,44.9c-.0842-.0487-.0934-.1222-.02-.1644l.7115-.4107a.3163.3163,0,0,1,.2845.0118l.6706.3872C13.0316,44.7722,13.0408,44.8457,12.9678,44.8879Z" transform="translate(-0.9355 -11.2706)"/><path class="cls-1" d="M14.7121,43.8808l-.7115.4108a.3163.3163,0,0,1-.2845-.0118l-.6706-.3872c-.0842-.0486-.0934-.1222-.02-.1643l.7115-.4108a.3163.3163,0,0,1,.2845.0118l.6706.3872C14.7759,43.7652,14.7851,43.8387,14.7121,43.8808Z" transform="translate(-0.9355 -11.2706)"/><path class="cls-1" d="M16.4564,42.8737l-.7115.4108a.3163.3163,0,0,1-.2845-.0118l-.6706-.3872c-.0842-.0486-.0934-.1222-.0205-.1642l.7116-.4108a.3154.3154,0,0,1,.2844.0118l.6707.3872C16.52,42.7581,16.5294,42.8317,16.4564,42.8737Z" transform="translate(-0.9355 -11.2706)"/><path class="cls-1" d="M18.2894,39.9038l-.7114.4107a.3158.3158,0,0,1-.2846-.0118l-.6706-.3872c-.0842-.0486-.0934-.1221-.0205-.1642l.7115-.4108a.3165.3165,0,0,1,.2846.0118l.6706.3872C18.3532,39.7881,18.3624,39.8617,18.2894,39.9038Z" transform="translate(-0.9355 -11.2706)"/><path class="cls-1" d="M20.0337,38.8967l-.7115.4108a.3163.3163,0,0,1-.2845-.0118l-.6706-.3872c-.0842-.0486-.0934-.1222-.0205-.1643l.7115-.4108a.3163.3163,0,0,1,.2845.0118l.6707.3872C20.0975,38.781,20.1067,38.8546,20.0337,38.8967Z" transform="translate(-0.9355 -11.2706)"/><path class="cls-1" d="M18.2007,41.8667l-.7115.4107a.3161.3161,0,0,1-.2846-.0117l-.6705-.3872c-.0842-.0487-.0934-.1222-.02-.1643l.7115-.4108a.3163.3163,0,0,1,.2845.0118l.6707.3872C18.2645,41.751,18.2737,41.8245,18.2007,41.8667Z" transform="translate(-0.9355 -11.2706)"/><path class="cls-1" d="M19.945,40.86l-.7115.4108a.3162.3162,0,0,1-.2846-.0118l-.67-.3872c-.0843-.0486-.0934-.1222-.0205-.1643l.7115-.4108a.3166.3166,0,0,1,.2845.0118l.6707.3872C20.0088,40.7439,20.018,40.8175,19.945,40.86Z" transform="translate(-0.9355 -11.2706)"/><path class="cls-1" d="M21.8224,37.8685l-.7115.4108a.3168.3168,0,0,1-.2846-.0118l-.6706-.3872c-.0843-.0487-.0934-.1222-.02-.1643l.7114-.4108a.3162.3162,0,0,1,.2846.0118l.6706.3872C21.8862,37.7528,21.8953,37.8263,21.8224,37.8685Z" transform="translate(-0.9355 -11.2706)"/><path class="cls-1" d="M23.5667,36.8614l-.7115.4108a.3165.3165,0,0,1-.2846-.0118L21.9,36.8732c-.0843-.0486-.0934-.1221-.02-.1643l.7115-.4108a.3165.3165,0,0,1,.2846.0118l.6706.3872C23.63,36.7458,23.64,36.8193,23.5667,36.8614Z" transform="translate(-0.9355 -11.2706)"/><path class="cls-1" d="M25.311,35.8543l-.7115.4108a.3165.3165,0,0,1-.2846-.0118l-.6707-.3872c-.0842-.0486-.0933-.1222-.02-.1642l.7115-.4108a.3165.3165,0,0,1,.2846.0118l.6706.3872C25.3747,35.7386,25.3838,35.8123,25.311,35.8543Z" transform="translate(-0.9355 -11.2706)"/><path class="cls-1" d="M27.0552,34.8473l-.7115.4108a.3166.3166,0,0,1-.2845-.0118l-.6707-.3872c-.0842-.0487-.0933-.1222-.02-.1644l.7115-.4107a.3165.3165,0,0,1,.2846.0118l.6706.3872C27.119,34.7316,27.1281,34.8051,27.0552,34.8473Z" transform="translate(-0.9355 -11.2706)"/><path class="cls-1" d="M28.8,33.84l-.7115.4108a.3163.3163,0,0,1-.2845-.0118l-.6707-.3872c-.0842-.0486-.0934-.1222-.02-.1643l.7115-.4108a.3168.3168,0,0,1,.2846.0118l.6705.3872C28.8633,33.7246,28.8724,33.7981,28.8,33.84Z" transform="translate(-0.9355 -11.2706)"/><path class="cls-1" d="M21.7336,39.8314l-.7114.4108a.3168.3168,0,0,1-.2846-.0118l-.6706-.3872c-.0842-.0486-.0934-.1222-.02-.1643l.7116-.4108a.3163.3163,0,0,1,.2845.0118l.6707.3872C21.7975,39.7157,21.8066,39.7893,21.7336,39.8314Z" transform="translate(-0.9355 -11.2706)"/><path class="cls-1" d="M23.4779,38.8243l-.7114.4108a.3165.3165,0,0,1-.2846-.0118l-.6706-.3872c-.0842-.0486-.0934-.1222-.02-.1643l.7115-.4107a.3161.3161,0,0,1,.2846.0117l.6706.3872C23.5418,38.7087,23.5509,38.7822,23.4779,38.8243Z" transform="translate(-0.9355 -11.2706)"/><path class="cls-1" d="M25.2222,37.8172l-.7114.4108a.3158.3158,0,0,1-.2846-.0118l-.6706-.3872c-.0842-.0486-.0934-.1221-.02-.1642l.7115-.4108a.3165.3165,0,0,1,.2846.0118l.6706.3871C25.286,37.7016,25.2952,37.7751,25.2222,37.8172Z" transform="translate(-0.9355 -11.2706)"/><path class="cls-1" d="M26.9665,36.81l-.7115.4108a.3166.3166,0,0,1-.2845-.0118L25.3,36.822c-.0843-.0486-.0934-.1222-.0205-.1643l.7115-.4108a.3163.3163,0,0,1,.2845.0118l.6707.3872C27.03,36.6945,27.0394,36.7681,26.9665,36.81Z" transform="translate(-0.9355 -11.2706)"/><path class="cls-1" d="M28.7108,35.8031l-.7115.4108a.3163.3163,0,0,1-.2845-.0118l-.6707-.3872c-.0842-.0486-.0933-.1221-.02-.1643l.7115-.4107a.3159.3159,0,0,1,.2845.0117l.6707.3872C28.7746,35.6875,28.7837,35.761,28.7108,35.8031Z" transform="translate(-0.9355 -11.2706)"/><path class="cls-1" d="M30.5438,32.8331l-.7115.4108a.3163.3163,0,0,1-.2845-.0118l-.6707-.3872c-.0842-.0485-.0934-.1221-.02-.1642l.7115-.4108a.3158.3158,0,0,1,.2846.0118l.6705.3872C30.6075,32.7175,30.6167,32.7911,30.5438,32.8331Z" transform="translate(-0.9355 -11.2706)"/><path class="cls-1" d="M32.2881,31.8261l-.7115.4107a.3159.3159,0,0,1-.2845-.0117l-.6707-.3872c-.0842-.0487-.0934-.1222-.02-.1643l.7115-.4108a.3163.3163,0,0,1,.2845.0118l.6706.3872C32.3518,31.71,32.361,31.7839,32.2881,31.8261Z" transform="translate(-0.9355 -11.2706)"/><path class="cls-1" d="M30.4551,34.796l-.7115.4108a.3158.3158,0,0,1-.2846-.0118l-.6706-.3872c-.0842-.0485-.0933-.1222-.02-.1642l.7114-.4108a.3165.3165,0,0,1,.2846.0118l.6706.3872C30.5189,34.68,30.528,34.754,30.4551,34.796Z" transform="translate(-0.9355 -11.2706)"/><path class="cls-1" d="M32.1994,33.789l-.7115.4108a.3165.3165,0,0,1-.2846-.0118l-.6706-.3872c-.0843-.0486-.0934-.1222-.02-.1643l.7114-.4108a.3162.3162,0,0,1,.2846.0119l.6706.3871C32.2632,33.6733,32.2723,33.7469,32.1994,33.789Z" transform="translate(-0.9355 -11.2706)"/><path class="cls-1" d="M34.118,30.7952l-.7114.4107a.3161.3161,0,0,1-.2846-.0117l-.6707-.3872c-.0842-.0486-.0933-.1222-.02-.1643l.7115-.4108a.3165.3165,0,0,1,.2846.0118l.6706.3872C34.1818,30.68,34.1909,30.7531,34.118,30.7952Z" transform="translate(-0.9355 -11.2706)"/><path class="cls-1" d="M35.8623,29.7881l-.7115.4108a.3163.3163,0,0,1-.2845-.0118L34.1956,29.8c-.0842-.0486-.0933-.1222-.02-.1642l.7115-.4109a.3163.3163,0,0,1,.2845.0119l.6706.3871C35.9261,29.6724,35.9352,29.746,35.8623,29.7881Z" transform="translate(-0.9355 -11.2706)"/><path class="cls-1" d="M37.6066,28.7811l-.7115.4108a.3166.3166,0,0,1-.2845-.0118l-.6707-.3872c-.0842-.0487-.0934-.1222-.02-.1644l.7115-.4107a.316.316,0,0,1,.2845.0118l.6706.3872C37.67,28.6654,37.68,28.7389,37.6066,28.7811Z" transform="translate(-0.9355 -11.2706)"/><path class="cls-1" d="M39.3509,27.774l-.7115.4108a.3162.3162,0,0,1-.2846-.0119l-.6706-.3871c-.0842-.0486-.0934-.1222-.02-.1643l.7114-.4108a.3165.3165,0,0,1,.2846.0118l.6706.3872C39.4146,27.6583,39.4238,27.7319,39.3509,27.774Z" transform="translate(-0.9355 -11.2706)"/><path class="cls-1" d="M41.0952,26.7669l-.7115.4108a.3165.3165,0,0,1-.2846-.0118l-.6706-.3872c-.0843-.0486-.0934-.1222-.02-.1642l.7114-.4108a.3158.3158,0,0,1,.2846.0118l.6706.3872C41.159,26.6512,41.1681,26.7249,41.0952,26.7669Z" transform="translate(-0.9355 -11.2706)"/><path class="cls-1" d="M34.0293,32.7581l-.7115.4108a.3165.3165,0,0,1-.2846-.0118l-.6705-.3872c-.0843-.0487-.0934-.1222-.02-.1643l.7115-.4107a.3159.3159,0,0,1,.2845.0117l.6707.3872C34.0931,32.6424,34.1023,32.716,34.0293,32.7581Z" transform="translate(-0.9355 -11.2706)"/><path class="cls-1" d="M35.7736,31.751l-.7115.4108a.3158.3158,0,0,1-.2846-.0118l-.6705-.3872c-.0843-.0486-.0934-.1222-.02-.1642l.7115-.4109a.3169.3169,0,0,1,.2845.0118l.6707.3872C35.8374,31.6354,35.8465,31.7089,35.7736,31.751Z" transform="translate(-0.9355 -11.2706)"/><path class="cls-1" d="M37.5179,30.744l-.7115.4108a.3171.3171,0,0,1-.2846-.0118l-.6706-.3872c-.0842-.0486-.0933-.1222-.02-.1643l.7115-.4108a.316.316,0,0,1,.2845.0118l.6707.3872C37.5817,30.6283,37.5908,30.7019,37.5179,30.744Z" transform="translate(-0.9355 -11.2706)"/><path class="cls-1" d="M39.2622,29.7369l-.7115.4108a.3165.3165,0,0,1-.2846-.0118l-.6706-.3872c-.0842-.0486-.0933-.1221-.02-.1643l.7115-.4107a.3161.3161,0,0,1,.2846.0117l.6706.3872C39.326,29.6213,39.3351,29.6948,39.2622,29.7369Z" transform="translate(-0.9355 -11.2706)"/><path class="cls-1" d="M41.0065,28.73l-.7115.4108a.3158.3158,0,0,1-.2846-.0118l-.6706-.3872c-.0843-.0486-.0933-.1222-.02-.1642l.7115-.4108a.3165.3165,0,0,1,.2846.0118l.6706.3872C41.07,28.6141,41.0794,28.6877,41.0065,28.73Z" transform="translate(-0.9355 -11.2706)"/><path class="cls-1" d="M42.84,25.76l-.7116.4107a.3159.3159,0,0,1-.2845-.0117l-.6707-.3872c-.0842-.0487-.0933-.1222-.02-.1643l.7114-.4108a.3165.3165,0,0,1,.2846.0118l.6706.3872C42.9032,25.6442,42.9124,25.7177,42.84,25.76Z" transform="translate(-0.9355 -11.2706)"/><path class="cls-1" d="M44.5838,24.7528l-.7116.4108a.3163.3163,0,0,1-.2845-.0118l-.6707-.3872c-.0842-.0486-.0933-.1222-.02-.1643l.7115-.4108a.3168.3168,0,0,1,.2846.0118l.6706.3872C44.6475,24.6371,44.6566,24.7107,44.5838,24.7528Z" transform="translate(-0.9355 -11.2706)"/><path class="cls-1" d="M42.7507,27.7228l-.7114.4108a.3168.3168,0,0,1-.2846-.0118l-.6706-.3872c-.0843-.0487-.0934-.1222-.02-.1643l.7115-.4108a.3165.3165,0,0,1,.2846.0118l.6706.3872C42.8145,27.6071,42.8236,27.6807,42.7507,27.7228Z" transform="translate(-0.9355 -11.2706)"/><path class="cls-1" d="M44.495,26.7157l-.7114.4108a.3165.3165,0,0,1-.2846-.0118l-.6707-.3872c-.0842-.0486-.0933-.1221-.02-.1643l.7115-.4108a.3165.3165,0,0,1,.2846.0118l.6706.3872C44.5588,26.6,44.5679,26.6736,44.495,26.7157Z" transform="translate(-0.9355 -11.2706)"/><path class="cls-1" d="M46.3724,23.7245l-.7115.4109a.3166.3166,0,0,1-.2845-.0119l-.6707-.3871c-.0842-.0486-.0934-.1222-.02-.1643l.7115-.4108a.3163.3163,0,0,1,.2845.0118l.6706.3872C46.4361,23.6089,46.4453,23.6825,46.3724,23.7245Z" transform="translate(-0.9355 -11.2706)"/><path class="cls-1" d="M48.1167,22.7175l-.7116.4108a.3163.3163,0,0,1-.2845-.0118l-.6706-.3872c-.0842-.0487-.0934-.1222-.02-.1643l.7115-.4107a.3159.3159,0,0,1,.2845.0117l.6706.3872C48.18,22.6019,48.19,22.6754,48.1167,22.7175Z" transform="translate(-0.9355 -11.2706)"/><path class="cls-1" d="M49.8609,21.71l-.7115.4108a.3157.3157,0,0,1-.2845-.0118l-.6706-.3872c-.0842-.0486-.0934-.1222-.02-.1642l.7114-.4109a.3168.3168,0,0,1,.2846.0119l.6706.3871C49.9247,21.5948,49.9339,21.6683,49.8609,21.71Z" transform="translate(-0.9355 -11.2706)"/><path class="cls-1" d="M51.6052,20.7034l-.7115.4108a.3166.3166,0,0,1-.2845-.0118l-.6706-.3872c-.0842-.0486-.0934-.1222-.02-.1643L50.63,20.14a.3162.3162,0,0,1,.2846.0118l.6706.3872C51.669,20.5877,51.6782,20.6613,51.6052,20.7034Z" transform="translate(-0.9355 -11.2706)"/><path class="cls-1" d="M53.35,19.6963l-.7115.4108a.3163.3163,0,0,1-.2845-.0118l-.6707-.3872c-.0842-.0486-.0933-.1221-.02-.1643l.7114-.4107a.3161.3161,0,0,1,.2846.0117l.6706.3872C53.4133,19.5807,53.4225,19.6542,53.35,19.6963Z" transform="translate(-0.9355 -11.2706)"/><path class="cls-1" d="M46.2837,25.6874l-.7115.4109a.3162.3162,0,0,1-.2846-.0119l-.6706-.3871c-.0842-.0486-.0934-.1222-.02-.1643l.7114-.4108a.3165.3165,0,0,1,.2846.0118l.6706.3872C46.3475,25.5718,46.3566,25.6454,46.2837,25.6874Z" transform="translate(-0.9355 -11.2706)"/><path class="cls-1" d="M48.028,24.68l-.7116.4108a.3163.3163,0,0,1-.2845-.0118l-.6707-.3872c-.0842-.0486-.0933-.1222-.02-.1643l.7114-.4107a.3158.3158,0,0,1,.2846.0118l.6706.3872C48.0917,24.5647,48.1009,24.6383,48.028,24.68Z" transform="translate(-0.9355 -11.2706)"/><path class="cls-1" d="M49.7723,23.6734l-.7116.4107a.316.316,0,0,1-.2845-.0118l-.6707-.3872c-.0842-.0486-.0933-.1221-.02-.1643l.7115-.4107a.3168.3168,0,0,1,.2846.0117l.6706.3872C49.836,23.5577,49.8451,23.6312,49.7723,23.6734Z" transform="translate(-0.9355 -11.2706)"/><path class="cls-1" d="M51.5166,22.6663l-.7116.4108a.3163.3163,0,0,1-.2845-.0118l-.6707-.3872c-.0842-.0486-.0933-.1222-.02-.1643l.7115-.4108a.3165.3165,0,0,1,.2846.0118l.6706.3872C51.58,22.5506,51.5894,22.6242,51.5166,22.6663Z" transform="translate(-0.9355 -11.2706)"/><path class="cls-1" d="M53.2608,21.6592l-.7115.4108a.3163.3163,0,0,1-.2845-.0118l-.6707-.3872c-.0842-.0486-.0934-.1222-.02-.1643l.7115-.4107a.3158.3158,0,0,1,.2846.0118l.6706.3872C53.3246,21.5436,53.3337,21.6171,53.2608,21.6592Z" transform="translate(-0.9355 -11.2706)"/><path class="cls-1" d="M55.0938,18.6892l-.7115.4108a.3159.3159,0,0,1-.2846-.0118l-.6706-.3872c-.0842-.0486-.0933-.1222-.02-.1642l.7115-.4108a.3163.3163,0,0,1,.2845.0118l.6707.3872C55.1576,18.5735,55.1667,18.6472,55.0938,18.6892Z" transform="translate(-0.9355 -11.2706)"/><path class="cls-1" d="M56.8381,17.6822l-.7115.4108a.3165.3165,0,0,1-.2846-.0118l-.6706-.3872c-.0842-.0487-.0933-.1222-.02-.1643l.7115-.4108a.3163.3163,0,0,1,.2845.0118l.6707.3872C56.9019,17.5665,56.911,17.64,56.8381,17.6822Z" transform="translate(-0.9355 -11.2706)"/><path class="cls-1" d="M55.0051,20.6522l-.7115.4107a.3156.3156,0,0,1-.2845-.0118l-.6707-.3872c-.0842-.0486-.0934-.1221-.02-.1642l.7115-.4108a.3165.3165,0,0,1,.2846.0118l.67.3872C55.0689,20.5365,55.078,20.61,55.0051,20.6522Z" transform="translate(-0.9355 -11.2706)"/><path class="cls-1" d="M56.7494,19.6451l-.7115.4108a.3163.3163,0,0,1-.2845-.0118l-.6707-.3872c-.0842-.0486-.0934-.1222-.02-.1643l.7115-.4108a.3165.3165,0,0,1,.2846.0118l.6705.3872C56.8131,19.5294,56.8223,19.603,56.7494,19.6451Z" transform="translate(-0.9355 -11.2706)"/><path class="cls-2" d="M57.3137,12.13c-4.6112-.211-6.0461.8252-6.0461.8252l1.1917,1.8556.9357,1.9969s1.6413-.6625,3.9188-4.6777h0Z" transform="translate(-0.9355 -11.2706)"/><path class="cls-1" d="M53.2143,17.2677l-1.08-2.3045-1.3526-2.1.2756-.199c.0626-.0453,1.5926-1.1056,6.2726-.8925l.5847.0269-.2885.5085c-2.3126,4.0772-4.0249,4.8048-4.0967,4.8333ZM51.783,13.094l.9783,1.5231.7906,1.6809a12.2235,12.2235,0,0,0,3.15-3.83A12.3205,12.3205,0,0,0,51.783,13.094Z" transform="translate(-0.9355 -11.2706)"/><path class="cls-1" d="M57.3138,12.116h0v0l-.0016,0a1.1964,1.1964,0,0,0-.2744.203,13.4555,13.4555,0,0,1-3.5562,2.2681s-.3062.4607-.6507,1.0028l.5641,1.2039S55.0363,16.1312,57.3138,12.116Z" transform="translate(-0.9355 -11.2706)"/><path class="cls-1" d="M53.2143,17.2537l-.7922-1.69.1057-.1661c.3467-.5452.6552-1.009.6552-1.009l.0593-.09.0993-.0426a13.18,13.18,0,0,0,3.4451-2.1934,1.5565,1.5565,0,0,1,.3554-.2632l.1639-.0885.5054.2525-.1855.3294c-2.3126,4.0772-4.0249,4.8048-4.0967,4.8333Zm.0254-1.6374.3127.6672a10.1817,10.1817,0,0,0,2.3838-2.63,15.8689,15.8689,0,0,1-2.2133,1.22C53.6333,15.0091,53.45,15.2884,53.24,15.6163Z" transform="translate(-0.9355 -11.2706)"/><rect class="cls-1" x="57.0711" y="11.543" width="1.3117" height="0.7183" transform="translate(0.5068 18.1274) rotate(-28.9177)"/><path class="cls-1" d="M49.6974,14.0358c.019-.9921,1.7177-1.4073,2.5674-.8949a3.4392,3.4392,0,0,1,1.5044,2.7241c-.019.9921-1.1861,2.2692-2.0357,1.7568A5.9,5.9,0,0,1,49.6974,14.0358Z" transform="translate(-0.9355 -11.2706)"/><path class="cls-1" d="M52.153,18.0983a1.1614,1.1614,0,0,1-.6052-.1694,6.2318,6.2318,0,0,1-2.209-3.9h0a1.36,1.36,0,0,1,.782-1.1617,2.5124,2.5124,0,0,1,2.3293-.0334,3.7841,3.7841,0,0,1,1.6778,3.0385,2.6084,2.6084,0,0,1-1.2674,2.0294A1.4659,1.4659,0,0,1,52.153,18.0983Zm-2.0969-4.0557a5.5768,5.5768,0,0,0,1.8628,3.2715.5693.5693,0,0,0,.5948-.0416,1.885,1.885,0,0,0,.8969-1.4146,3.0932,3.0932,0,0,0-1.3316-2.41,1.7924,1.7924,0,0,0-1.6109.0474.6888.6888,0,0,0-.412.5468Z" transform="translate(-0.9355 -11.2706)"/><path class="cls-3" d="M53.28,14.2578a.1292.1292,0,0,0-.0184-.079,3.1134,3.1134,0,0,0-1.0109-1.0731c-.8177-.4931-2.417-.1256-2.5536.7867a5.4174,5.4174,0,0,0,1.5565,2.0144C52.0731,16.4009,53.1848,15.2315,53.28,14.2578Z" transform="translate(-0.9355 -11.2706)"/><path class="cls-1" d="M51.673,16.3827a1.1583,1.1583,0,0,1-.6046-.1682,5.7918,5.7918,0,0,1-1.6924-2.1627l-.05-.1008.0167-.1116a1.45,1.45,0,0,1,.8947-1.0711,2.4634,2.4634,0,0,1,2.1993.03A3.44,3.44,0,0,1,53.57,13.9947a.4931.4931,0,0,1,.0669.2982h0A2.6144,2.6144,0,0,1,52.3153,16.22,1.4313,1.4313,0,0,1,51.673,16.3827Zm-1.5953-2.5342A4.9289,4.9289,0,0,0,51.4394,15.6a.55.55,0,0,0,.5539-.021,1.9123,1.9123,0,0,0,.92-1.2819,2.7047,2.7047,0,0,0-.8478-.8834,1.77,1.77,0,0,0-1.5229.0043A.8941.8941,0,0,0,50.0777,13.8485Z" transform="translate(-0.9355 -11.2706)"/><path class="cls-2" d="M52.6746,13.4414a2.4885,2.4885,0,0,0-.4237-.3357c-.8177-.4931-2.417-.1256-2.5536.7867.0516.1038.1064.2077.1635.3106a9.8438,9.8438,0,0,0,1.63.5375c.1859.0489.1291-.425.1291-.425A2.9735,2.9735,0,0,0,52.6746,13.4414Z" transform="translate(-0.9355 -11.2706)"/><path class="cls-1" d="M51.5171,15.1029a.4443.4443,0,0,1-.1181-.0156,10.1442,10.1442,0,0,1-1.6837-.556l-.11-.0491-.0583-.1052c-.06-.1084-.1176-.2167-.1715-.3262l-.05-.1009.0167-.1105a1.45,1.45,0,0,1,.8947-1.0711,2.4634,2.4634,0,0,1,2.1993.03,2.8052,2.8052,0,0,1,.4854.3829l.21.2-.1515.2475a2.9565,2.9565,0,0,1-.994.8947.6466.6466,0,0,1-.1866.473A.4267.4267,0,0,1,51.5171,15.1029Zm-1.4006-1.1805a9.0461,9.0461,0,0,0,1.1412.3878l-.0248-.2039.2281-.1127a3.1088,3.1088,0,0,0,.7162-.5059c-.0383-.0281-.075-.0523-.1111-.0744a1.7715,1.7715,0,0,0-1.5235.0043.8941.8941,0,0,0-.4649.4309Z" transform="translate(-0.9355 -11.2706)"/><path class="cls-1" d="M24.8842,30.0387l1.3,2.3543L52.0559,17.8308a1.2167,1.2167,0,0,0,.5283-1.111A3.8263,3.8263,0,0,0,50.91,13.6885a1.2166,1.2166,0,0,0-1.2217-.1446l-26.1045,14.14Z" transform="translate(-0.9355 -11.2706)"/><path class="cls-1" d="M26.0451,32.8834l-2.95-5.3424L49.5173,13.2283a1.5552,1.5552,0,0,1,1.578.1526,4.1684,4.1684,0,0,1,1.8477,3.3459,1.5556,1.5556,0,0,1-.7135,1.4184Zm-1.9717-5.0555,2.25,4.075L51.88,17.5179a.9.9,0,0,0,.3458-.8052,3.49,3.49,0,0,0-1.5009-2.717.9025.9025,0,0,0-.8635-.1375Z" transform="translate(-0.9355 -11.2706)"/><path class="cls-3" d="M50.9007,13.6885a1.2168,1.2168,0,0,0-1.2218-.1446L23.9544,27.4785l.5661,1.0252,1.3,2.3543L51.6922,16.2957a1.1933,1.1933,0,0,0,.5221-1.0549A3.6525,3.6525,0,0,0,50.9007,13.6885Z" transform="translate(-0.9355 -11.2706)"/><path class="cls-1" d="M25.6815,31.348l-2.2162-4.013L49.5082,13.2283a1.5532,1.5532,0,0,1,1.5774.1526h.0006a4.01,4.01,0,0,1,1.4529,1.7064l.0378.0809-.0039.089a1.536,1.536,0,0,1-.7064,1.3525Zm-1.2379-3.7261L25.96,30.3675,51.5166,15.9831a.8227.8227,0,0,0,.3332-.6709,3.237,3.237,0,0,0-1.1341-1.3165h0a.8987.8987,0,0,0-.8629-.1375Z" transform="translate(-0.9355 -11.2706)"/><path class="cls-2" d="M50.8568,13.6885a1.2166,1.2166,0,0,0-1.2217-.1446L29.9437,24.2105a.066.066,0,0,0-.0257.0925,1.8375,1.8375,0,0,1,.1546,1.8614.0643.0643,0,0,0,.0827.0938c2.319-1.2286,18.5792-9.8616,21.2511-11.7744l.0321-.32A2.8565,2.8565,0,0,0,50.8568,13.6885Z" transform="translate(-0.9355 -11.2706)"/><path class="cls-1" d="M30.125,26.6247a.4224.4224,0,0,1-.3094-.1348.4267.4267,0,0,1-.0466-.5172,1.5179,1.5179,0,0,0-.1556-1.48l-.0817-.131.0315-.2a.43.43,0,0,1,.2079-.2664L49.464,13.2283a1.5551,1.5551,0,0,1,1.5779.1526h.0006a3.2235,3.2235,0,0,1,.6558.5345l.1138.12-.0647.6461-.1322.0944c-2.6517,1.8989-18.2016,10.1621-21.2918,11.7995A.42.42,0,0,1,30.125,26.6247Zm.2472-2.2381A2.4105,2.4105,0,0,1,30.6294,25.6c3.55-1.8849,17.59-9.3683,20.4272-11.31a2.3919,2.3919,0,0,0-.3846-.2945.9033.9033,0,0,0-.8639-.1375Z" transform="translate(-0.9355 -11.2706)"/><path class="cls-1" d="M7.0328,36.39a8.0577,8.0577,0,0,0-2.4,2.0774c-.6933.9148-1.2367,2.0849-.6366,3.1062.5447,1.0518,1.8244,1.2152,2.968,1.1157a8.061,8.061,0,0,0,3.0368-.9253c8.0849-4.2488,15.8223-8.9082,15.8223-8.9082a1.4509,1.4509,0,0,0,.63-1.325,4.5635,4.5635,0,0,0-1.9963-3.615A1.4511,1.4511,0,0,0,23,27.7436S14.935,31.8106,7.0328,36.39Z" transform="translate(-0.9355 -11.2706)"/><path class="cls-1" d="M6.4153,43.0736A2.8222,2.8222,0,0,1,3.677,41.7388c-.5611-.9535-.3327-2.1653.6692-3.4877A8.3746,8.3746,0,0,1,6.853,36.08c7.8207-4.5324,15.9041-8.616,15.9851-8.6564a1.7836,1.7836,0,0,1,1.8039.1849,4.8943,4.8943,0,0,1,2.17,3.93,1.7872,1.7872,0,0,1-.8159,1.632c-.0656.04-7.827,4.7065-15.8284,8.9115a8.377,8.377,0,0,1-3.1725.9653Q6.6942,43.0739,6.4153,43.0736Zm17.1028-15.099a.7024.7024,0,0,0-.3449.0836c-.0925.0469-8.1583,4.1208-15.96,8.643h0a7.6572,7.6572,0,0,0-2.2942,1.9835c-.8238,1.0867-1.03,1.9976-.6132,2.7074.3875.7474,1.2671,1.057,2.6272.94a7.6717,7.6717,0,0,0,2.9012-.8855c7.9824-4.1947,15.7268-8.8516,15.8039-8.898a1.1328,1.1328,0,0,0,.4566-1.0242,4.2379,4.2379,0,0,0-1.8229-3.3011A1.5039,1.5039,0,0,0,23.5181,27.9746Z" transform="translate(-0.9355 -11.2706)"/><path class="cls-3" d="M24.4935,27.9161a1.4512,1.4512,0,0,0-1.4571-.1725S14.9719,31.8106,7.07,36.39a8.0577,8.0577,0,0,0-2.4,2.0774,3.7,3.7,0,0,0-.8863,2.2132,3.4347,3.4347,0,0,0,2.5274.57,8.06,8.06,0,0,0,3.0367-.9251c8.085-4.2488,15.8224-8.9083,15.8224-8.9083a1.4508,1.4508,0,0,0,.63-1.325,3.5774,3.5774,0,0,0-.15-1.0459A3.9394,3.9394,0,0,0,24.4935,27.9161Z" transform="translate(-0.9355 -11.2706)"/><path class="cls-1" d="M5.766,41.6347a3.2989,3.2989,0,0,1-2.2176-.6822l-.1195-.103-.0048-.1575a3.9466,3.9466,0,0,1,.9591-2.4409A8.3679,8.3679,0,0,1,6.89,36.08c7.8208-4.5324,15.9045-8.616,15.9854-8.6564a1.7861,1.7861,0,0,1,1.8037.1849h0a4.2945,4.2945,0,0,1,1.2649,1.2334l.05.1057a3.9079,3.9079,0,0,1,.1642,1.152,1.7887,1.7887,0,0,1-.8152,1.6324c-.066.04-7.8275,4.7066-15.8292,8.9116a8.3776,8.3776,0,0,1-3.1724.9653Q6.0421,41.6347,5.766,41.6347ZM4.1446,40.5076a3.3848,3.3848,0,0,0,2.1346.3861A7.6719,7.6719,0,0,0,9.18,40.0082c7.9825-4.1947,15.727-8.8517,15.8042-8.898a1.12,1.12,0,0,0,.4562-1.0248,3.1428,3.1428,0,0,0-.12-.8823,3.53,3.53,0,0,0-1.0122-.98,1.1173,1.1173,0,0,0-1.0978-.165c-.0925.0469-8.1587,4.1208-15.9608,8.643a7.6536,7.6536,0,0,0-2.294,1.9835A3.55,3.55,0,0,0,4.1446,40.5076Z" transform="translate(-0.9355 -11.2706)"/><path class="cls-2" d="M4.9015,41.25A31.1263,31.1263,0,0,1,8.65,38.806l1.9432-1.1227S11.8821,36.6368,9.2873,35.4c-.0852-.0406-.1694-.0759-.2541-.1135q-1.001.5681-2.008,1.1511a8.0575,8.0575,0,0,0-2.4,2.0774,3.6985,3.6985,0,0,0-.8862,2.2132A2.4542,2.4542,0,0,0,4.9015,41.25Z" transform="translate(-0.9355 -11.2706)"/><path class="cls-1" d="M4.9935,41.6325l-.1589-.03A2.8032,2.8032,0,0,1,3.5041,41l-.12-.103L3.38,40.739a3.95,3.95,0,0,1,.9591-2.4409,8.3719,8.3719,0,0,1,2.5067-2.1713q1.0059-.5832,2.01-1.1531l.1577-.09.2433.1079c.0617.027.1235.0539.186.0841,1.1307.5393,1.7436,1.1428,1.821,1.7943a1.2725,1.2725,0,0,1-.4447,1.0915l-.0466.0319L8.8293,39.1167a30.7884,30.7884,0,0,0-3.7081,2.4166ZM4.1,40.555a2.1158,2.1158,0,0,0,.7146.3085,32.0245,32.0245,0,0,1,3.6586-2.37l1.9075-1.1024a.5461.5461,0,0,0,.1694-.4417c-.0291-.219-.2519-.67-1.4173-1.2253-.0267-.0129-.0529-.0248-.0793-.0367q-.9217.5243-1.8482,1.0609A7.6533,7.6533,0,0,0,4.911,38.7317,3.5546,3.5546,0,0,0,4.1,40.555Z" transform="translate(-0.9355 -11.2706)"/><path class="cls-1" d="M9.2637,42.497l-.3473-.6277a1.1588,1.1588,0,0,0,.4608-1.0522,4.3565,4.3565,0,0,0-1.8744-3.3938,1.1506,1.1506,0,0,0-1.153-.16l-.3656-.618a1.8286,1.8286,0,0,1,1.8894.1634,5.0094,5.0094,0,0,1,2.2214,4.0226A1.8263,1.8263,0,0,1,9.2637,42.497Z" transform="translate(-0.9355 -11.2706)"/><path class="cls-1" d="M24.2492,34.2l-.3473-.6277a1.15,1.15,0,0,0,.457-1.0441,4.33,4.33,0,0,0-1.8622-3.3718,1.1487,1.1487,0,0,0-1.1436-.1591l-.3657-.618a1.82,1.82,0,0,1,1.88.1623,4.9829,4.9829,0,0,1,2.2093,4.0006A1.8176,1.8176,0,0,1,24.2492,34.2Z" transform="translate(-0.9355 -11.2706)"/><path class="cls-3" d="M3.7822,40.7687c.01-.5391.3929-.75.8547-.472a1.8688,1.8688,0,0,1,.8175,1.48c-.01.5391-.3929.7505-.8546.472A1.869,1.869,0,0,1,3.7822,40.7687Z" transform="translate(-0.9355 -11.2706)"/><path class="cls-1" d="M4.987,42.7306a1.12,1.12,0,0,1-.5728-.1742,2.2347,2.2347,0,0,1-.9909-1.7948h0a.9453.9453,0,0,1,.4433-.8494.9436.9436,0,0,1,.9556.0771,2.2345,2.2345,0,0,1,.9912,1.7948.9451.9451,0,0,1-.4436.85A.7888.7888,0,0,1,4.987,42.7306Zm-.846-1.955a1.52,1.52,0,0,0,.644,1.166c.1332.08.2144.0766.2379.0642s.07-.0793.0728-.2357a1.5206,1.5206,0,0,0-.644-1.166c-.134-.08-.2138-.0771-.2381-.0636s-.07.0793-.0726.2351Z" transform="translate(-0.9355 -11.2706)"/><path class="cls-1" d="M27.8336,26.5737,12.8185,34.8345a2.2007,2.2007,0,0,1-1.978-.1229h0c-.5789-.35-.7313-1.5277-.2179-1.81L25.737,25.3049c.5135-.2826,1.6594-.7809,2.2383-.4306h0C28.5542,25.2248,28.347,26.2912,27.8336,26.5737Z" transform="translate(-0.9355 -11.2706)"/><path class="cls-1" d="M12.002,35.3728a2.6617,2.6617,0,0,1-1.3472-.3543,1.7177,1.7177,0,0,1-.7029-1.4594,1.0794,1.0794,0,0,1,.498-.9718l15.1259-7.6032c.3935-.2162,1.7779-.9055,2.5853-.4174a1.1564,1.1564,0,0,1,.5217,1.056,1.4878,1.4878,0,0,1-.6763,1.2652L12.9916,35.149A2.08,2.08,0,0,1,12.002,35.3728ZM27.4686,25.1109a3.7586,3.7586,0,0,0-1.5584.5085L10.784,33.2226a.4617.4617,0,0,0-.1146.3517,1.012,1.012,0,0,0,.357.83,1.8685,1.8685,0,0,0,1.619.1155L27.6608,26.259a.8112.8112,0,0,0,.3045-.6514.48.48,0,0,0-.1758-.4266A.626.626,0,0,0,27.4686,25.1109Z" transform="translate(-0.9355 -11.2706)"/><path class="cls-2" d="M27.8489,25.8317,12.8338,34.0926a2.201,2.201,0,0,1-1.978-.1229h0c-.579-.35-.632-.8635-.1185-1.146l15.015-8.2608a2.2007,2.2007,0,0,1,1.978.1229h0C28.3093,25.0362,28.3624,25.5492,27.8489,25.8317Z" transform="translate(-0.9355 -11.2706)"/><path class="cls-1" d="M12.0174,34.6308a2.6624,2.6624,0,0,1-1.3475-.3544,1.158,1.158,0,0,1-.6444-.97.9464.9464,0,0,1,.5387-.7971l15.0149-8.2606a2.559,2.559,0,0,1,2.3371.1306,1.1573,1.1573,0,0,1,.6444.9707.945.945,0,0,1-.5387.7965L13.007,34.4069A2.08,2.08,0,0,1,12.0174,34.6308Zm14.5443-9.8883a1.3566,1.3566,0,0,0-.6364.1348L10.9105,33.1379c-.05.0275-.1653.1-.1672.1828-.0016.0793.09.2158.2982.3414a1.8659,1.8659,0,0,0,1.6193.116l15.0148-8.2606c.05-.0275.1656-.1.1673-.1828.0015-.0793-.09-.2157-.2983-.3414A1.9732,1.9732,0,0,0,26.5617,24.7425Z" transform="translate(-0.9355 -11.2706)"/><path class="cls-3" d="M9.8186,41.7577l-.4908-.2535a2.483,2.483,0,0,0,.078-1.3L9.9484,40.1A2.9936,2.9936,0,0,1,9.8186,41.7577Z" transform="translate(-0.9355 -11.2706)"/><path class="cls-3" d="M24.8484,33.3547l-.52-.1866a3.53,3.53,0,0,0,.0329-1.386l.5451-.0884A4.12,4.12,0,0,1,24.8484,33.3547Z" transform="translate(-0.9355 -11.2706)"/><path class="cls-3" d="M26.6617,32.2513l-.52-.1866a3.5258,3.5258,0,0,0,.0329-1.386L26.72,30.59A4.1171,4.1171,0,0,1,26.6617,32.2513Z" transform="translate(-0.9355 -11.2706)"/><path class="cls-3" d="M52.758,17.3535l-.5209-.1834a2.8964,2.8964,0,0,0-.0788-1.3671l.5318-.1505A3.4016,3.4016,0,0,1,52.758,17.3535Z" transform="translate(-0.9355 -11.2706)"/><path class="cls-3" d="M53.9569,16.366l-.5209-.1822a2.9,2.9,0,0,0-.0788-1.3683l.5318-.1505A3.4028,3.4028,0,0,1,53.9569,16.366Z" transform="translate(-0.9355 -11.2706)"/><rect class="cls-3" x="10.9961" y="23.0025" width="0.5523" height="0.7313"/><rect class="cls-3" x="21.9203" y="17.1694" width="0.5523" height="0.7313"/><rect class="cls-3" x="23.8015" y="16.1339" width="0.5522" height="0.7314"/></g></svg>